<?xml version="1.0" encoding="utf-8"?><svg xmlns="http://www.w3.org/2000/svg" id="Capa_1" viewBox="0 0 383 233"><style>
    .st0{fill:#163330}.st1{fill:#f49400}.st2{fill:#fab952}.st3{fill:#f28a15}.st4{fill:#ec6307}.st5{fill:#ffe02e}.st6{fill:#c12d64}.st7{fill:#e74481}.st8{fill:#eb5b90}.st9{fill:#eb5a90}.st10{fill:#e74581}.st11{fill:#eb5a8f}.st12{fill:#e64481}.st13{fill:#9b5526}.st14{fill:#c98a5f}.st16{fill:#7f3b0b}.st20{fill:#78c7c7}.st21{fill:#fff}.st22{enable-background:new}
  </style><path d="M360.6 143C333.5 61.3 268.3 3.8 192.1 3.8S50.7 61.3 23.7 143h336.9z" class="st0" /><path d="M73.4 67.2s1.7 7.8 4.8 11.1c5.1 5.2 4.6-5.6 4.6-5.6l-9.4-5.5z" class="st1" /><path d="M89.1 84.2s-5.5-.2-9.5-5.1c-3.2-4-5.6-10.6-5.6-10.6s8.3 3.2 11.5 7.9 3.2 6.9 3.2 6.9l.9-.5s.7-7.2-7-13.2-12.8-6.4-12.8-6.4 1.9 11.5 6.4 15.6c3.5 2.8 7.7 4.8 12.1 5.8l.8-.4z" class="st2" /><path d="M67 79.7s6.6 6.3 10.9 7.4c7 1.9 11.3-1.4 11.3-1.4l-9.5-6.9-12.7.9z" class="st3" /><path d="M89.2 85.8s-4.8 2.6-10.8.5c-4.8-1.7-10.3-6.2-10.3-6.2s8.8-1.5 13.9.9 6.4 4.3 6.4 4.3l.5-.9s-3.1-6.5-12.9-7.7-14.2 1.2-14.2 1.2 7.6 8.8 13.6 10.1 13.4-1.3 13.4-1.3l.4-.9z" class="st2" /><path d="M90.6 87.7s-3 4.7-9.2 5.7c-5 .8-12-.4-12-.4s6.9-5.6 12.6-6 7.6.7 7.6.7v-1s-5.9-4.2-15-.5C65.5 89.8 62.7 94 62.7 94s10.9 4.1 16.8 2.3 11.1-7.6 11.1-7.6v-1zM91.2 81.7s.1-5.5 4.9-9.6c3.9-3.3 10.5-5.8 10.5-5.8s-3.1 8.3-7.7 11.6-6.9 3.4-6.9 3.4l.5.9s7.2.6 13.1-7.3 6.1-12.9 6.1-12.9-11.4 2.1-15.5 6.7-5.5 12.2-5.5 12.2l.5.8z" class="st2" /><path d="M96.7 59.5s-6.5 6.4-7.7 10.7c-2 7 9.6 1.8 9.6 1.8l-1.9-12.5z" class="st1" /><path d="M90.2 81.5s-2.6-4.9-.3-10.8c1.8-4.8 6.3-10.2 6.3-10.2s1.4 8.8-1.1 13.9-4.4 6.3-4.4 6.3l.8.5s6.6-3 7.9-12.7c1.4-9.8-.9-14.2-.9-14.2s-9 7.4-10.3 13.4S89.4 81 89.4 81l.8.5z" class="st2" /><path d="M84 60.2s-2.2 7.7-1 12c2 7 8.4.2 8.4.2L84 60.2z" class="st3" /><path d="M90 82.8s-4.8-2.8-6-9c-1-5 0-12 0-12s5.8 6.7 6.4 12.4-.4 7.6-.4 7.6h1s4-6 0-15-8.3-11.6-8.3-11.6-3.6 11-1.7 16.8c3 8.8 8 10.8 8 10.8h1z" class="st2" /><path d="M49.6 119s3.7 7.1 7.5 9.4c6.3 3.7 11.3 1.7 11.3 1.7l-7.8-9.4-11-1.7z" class="st1" /><path d="M68.4 130.2s-5.4 1.2-10.5-2.4c-4.2-3-8.2-8.7-8.2-8.7s8.8.9 13.1 4.6 5 5.8 5 5.8l.7-.7s-1.2-7.1-10.3-10.9-14-2.8-14-2.8 4.9 10.6 10.3 13.4 13.2 2.4 13.2 2.4l.7-.7z" class="st2" /><path d="M46.1 131.8s7.8 4.2 12.3 4.2c7.3 0 10.5-4.3 10.5-4.3L58 127.2l-11.9 4.6z" class="st3" /><path d="M68.9 131.6s-4 3.8-10.3 3.4c-4-.5-7.9-1.6-11.6-3.2 0 0 8-3.8 13.6-2.8 5.6.9 7.3 2.4 7.3 2.4l.3-1s-4.7-5.5-14.4-4c-9.7 1.4-13.4 4.9-13.4 4.9s9.6 6.5 15.7 6.2 12.5-4.8 12.5-4.8l.3-1.1z" class="st2" /><path d="M51.6 143.8s8 .4 11.9-1.8c6.4-3.6 7.2-8.9 7.2-8.9l-11.5 1.6-7.6 9.1z" class="st1" /><path d="M70.7 133.2s-1.6 5.3-7.4 7.9c-4.6 2.1-11.7 2.8-11.7 2.8s5.2-7.2 10.6-9.1 7.5-1.4 7.5-1.4l-.2-1s-6.8-2.5-14.6 3.4c-7.8 6-9.4 10.7-9.4 10.7s11.6 1.1 16.8-2.2S71 134 71 134l-.3-.8z" class="st2" /><path d="M69.5 144.8l.2-.3c3.6-6.3 1.5-11.3 1.5-11.3l-7.9 4.8-1.7 6.4s5.5 4.2 7.9.4z" class="st3" /><path d="M71.2 133.2s1.4 5.4-2.2 10.6c-.4.7-1.5 1.9-1.5 1.9l-5.8-.2s1.6-4.8 3.1-6.5c3.6-4.4 5.7-5.1 5.7-5.1l-.7-.7s-7.1 1.4-10.7 10.5l-.7 1.8 12 .2 1.4-11.7-.6-.8z" class="st2" /><path d="M72.5 144.1v-1.4c-.4-12.1-3.6-9.2-3.6-9.2l-.6 10.6s3.8 4.4 4.2 0z" class="st1" /><path d="M70.8 132.2s4.1 3.7 4 10l-.2 2.6-5.9-1s-.2-2.3-.1-3.3c.6-5.6 2-7.4 2-7.4l-1-.2s-3.9 3.8-3.6 11.2l11.4 1.2-.1-.7c-.8-6.1-5.6-12.2-5.6-12.2l-.9-.2z" class="st2" /><path d="M82.9 143.5a12 12 0 0 0-1.5-4.5c-3.8-6.2-9.4-6.2-9.4-6.2l2 10.7s9.6 3.5 8.9 0z" class="st3" /><path d="M72.2 132.2s5.3 1.4 8.2 7.1c1 1.9 2.2 6.4 2.2 6.4h-5s-2.7-3.3-3.4-5.1c-2.1-5.3-1.6-7.5-1.6-7.5l-1 .3s-1.6 4.8 1.5 10.8c.6 1.2 12.7 1.1 12.7 1.1s-1.1-3.7-2-5.1c-3.5-5.1-10.6-8.3-10.6-8.3l-1 .3z" class="st2" /><path d="M91.5 141.2s-3.9-7-7.8-9.2c-6.4-3.5-11.3-1.4-11.3-1.4s1.7 5.9 6.9 9 12.2 1.6 12.2 1.6z" class="st1" /><path d="M72.3 130.7s5.3-1.4 10.6 2.1c4.3 2.8 8.5 8.4 8.5 8.4s-8.9-.6-13.3-4.1-5.1-5.7-5.1-5.7l-.7.7s1.5 7.1 10.7 10.6 14.1 2.3 14.1 2.3-5.2-10.4-10.8-13-13.3-2-13.3-2l-.7.7z" class="st2" /><path d="M93.9 128.7s-6.8-4.3-11.3-4.3c-7.3 0-10.6 4.3-10.6 4.3s3.5 3.7 9 4.4 12.9-4.4 12.9-4.4z" class="st3" /><path d="M72.1 128.7s4-3.8 10.3-3.3c5.1.4 11.5 3.3 11.5 3.3s-8.1 3.7-13.6 2.7c-5.6-1-7.2-2.5-7.2-2.5l-.3 1s4.7 5.5 14.4 4.1c9.8-1.4 13.4-4.8 13.4-4.8s-9.6-6.6-15.7-6.3-12.6 4.7-12.6 4.7l-.2 1.1z" class="st2" /><path d="M89.5 117.4s-8-.2-11.9 2.1c-6.3 3.7-6.9 9.1-6.9 9.1l11.8-1.6 7-9.6z" class="st1" /><path d="M70.7 128.6s1.5-5.3 7.2-8.1c4.6-2.2 11.6-3.1 11.6-3.1s-5 7.3-10.3 9.3-7.5 1.6-7.5 1.6l.3 1s6.8 2.3 14.5-3.8c7.7-6.2 9.1-11 9.1-11s-11.6-.8-16.7 2.6-8.4 10.5-8.4 10.5l.2 1z" class="st2" /><path d="M80.6 108.2s-7.1 3.8-9.3 7.7c-3.6 6.3-1.5 11.3-1.5 11.3s4.7-.4 8.3-6c3.6-5.5 2.5-13 2.5-13z" class="st3" /><path d="M69.8 127.2s-1.3-5.4 2.2-10.6c2.9-4.2 8.6-8.4 8.6-8.4s-.7 8.8-4.4 13.2c-3.6 4.4-5.7 5.1-5.7 5.1l.7.7s7.1-1.3 10.7-10.5 2.5-14.1 2.5-14.1-10.5 5.1-13.2 10.6-2.1 13.3-2.1 13.3l.7.7z" class="st2" /><path d="M69.2 104.8s-4.5 7.3-4.6 11.8c-.1 7.3 4.1 10.6 4.1 10.6l4.7-10.2-4.2-12.2z" class="st1" /><path d="M68.8 127.3s-3.8-4-3.2-10.3c.5-5.1 3.4-11.5 3.4-11.5s3.6 8.1 2.6 13.7-2.6 7.2-2.6 7.2l1 .3s5.5-4.6 4.3-14.4c-1.3-9.8-4.6-13.5-4.6-13.5s-6.7 9.5-6.4 15.6a30 30 0 0 0 4.6 12.6l.9.3z" class="st2" /><path d="M57.1 109.2s-.1 8 2.2 11.8c3.8 6.2 10.5 8.7 10.5 8.7l-3.1-13.3-9.6-7.2z" class="st3" /><path d="M68.9 128.6s-5.3-1.4-8.2-7.1a42.5 42.5 0 0 1-3.2-11.6s7.4 5 9.4 10.2c2.1 5.3 1.6 7.5 1.6 7.5l1-.3s2.3-6.8-4-14.5-11.1-9-11.1-9-.6 11.6 2.8 16.7c5.2 7.7 10.6 8.3 10.6 8.3l1.1-.2z" class="st2" /><ellipse cx="70.4" cy="130.2" class="st4" rx="5" ry="5" transform="rotate(-15.3 70.4 130.2)" /><ellipse cx="70.4" cy="130.2" class="st5" rx="3" ry="3" transform="rotate(-15.3 70.4 130.2)" /><path d="M144.9 56.9s3 5.8 6.2 7.7c5.1 3 9.2 1.4 9.2 1.4l-8.9-10.1-6.5 1z" class="st1" /><path d="M160.3 66s-4.4 1-8.6-2c-3.4-2.4-6.7-7.2-6.7-7.2s7.2.7 10.8 3.8c3.5 3 4.1 4.8 4.1 4.8l.6-.6s-1-5.8-8.4-8.9-11.5-2.3-11.5-2.3 4 8.7 8.4 11 10.8 1.9 10.8 1.9l.5-.5z" class="st2" /><path d="M142.8 67.3s5.6 3.5 9.3 3.4c6 0 8.6-3.5 8.6-3.5l-8.6-3.6-9.3 3.7z" class="st3" /><path d="M160.7 67.2s-3.3 3.1-8.4 2.8c-4.2-.3-9.5-2.6-9.5-2.6s6.6-3.1 11.2-2.3 5.9 2 5.9 2l.2-.8s-3.9-4.5-11.8-3.3c-8 1.2-11 4-11 4s7.9 5.3 12.9 5 10.3-3.9 10.3-3.9l.2-.9z" class="st2" /><path d="M146.5 77.2s6.6.3 9.8-1.5c5.2-2.9 5.9-7.3 5.9-7.3l-9.6 1.3-6.1 7.5z" class="st1" /><path d="M162.2 68.5s-1.3 4.3-6.1 6.5c-3.8 1.7-9.6 2.3-9.6 2.3s4.3-5.9 8.7-7.4 6.2-1.1 6.2-1.1l-.2-.8s-5.5-2.1-12 2.8c-6.4 4.9-7.7 8.8-7.7 8.8s9.5.9 13.7-1.8a24 24 0 0 0 7.1-8.4l-.1-.9z" class="st2" /><path d="M153.2 85.1s6.4-4.1 8.2-7.3c2.9-5.2 1.2-9.3 1.2-9.3l-7.4 5.1-2 11.5z" class="st3" /><path d="M162.6 68.5s1.1 4.4-1.8 8.7c-2.3 3.5-7 6.9-7 6.9s.6-7.3 3.5-10.9S162 69 162 69l-.6-.6s-5.8 1.1-8.8 8.6c-2.9 7.5-2 11.5-2 11.5s8.6-4.2 10.8-8.7 1.7-10.9 1.7-10.9l-.5-.4z" class="st2" /><path d="M163.5 87.1s3.1-7.4 2.8-11.1a11 11 0 0 0-4.8-8.6l-1.9 9.1 3.9 10.6z" class="st1" /><path d="M162.3 67.7s3.3 3.1 3.3 8.2c0 4.2-2 9.6-2 9.6s-3.5-6.4-3-11 1.6-6.1 1.6-6.1l-.8-.2s-4.2 4.1-2.5 12 4.7 10.7 4.7 10.7 4.8-8.2 4.2-13.2-4.6-10-4.6-10h-.9z" class="st2" /><path d="M173.5 84.4s-.7-8-2.6-11.1c-3.1-5.1-7.5-5.6-7.5-5.6l1.4 11.1 8.7 5.6z" class="st3" /><path d="M163.4 67.7s4.4 1.2 6.7 5.8c1.9 3.7 2.6 9.5 2.6 9.5s-6-4.1-7.7-8.4-1.3-6.1-1.3-6.1l-.8.2s-1.9 5.6 3.2 11.9 9.1 7.4 9.1 7.4.5-9.5-2.3-13.7a23.2 23.2 0 0 0-8.7-6.8l-.8.2z" class="st2" /><path d="M179.2 75.1s-3.2-5.7-6.4-7.5c-5.2-2.9-9.3-1.1-9.3-1.1l7.3 8.6h8.4z" class="st1" /><path d="M163.5 66.4s4.4-1.2 8.7 1.7c3.5 2.3 7 6.9 7 6.9s-7.3-.5-10.9-3.4-4.2-4.6-4.2-4.6l-.6.6s1.2 5.8 8.7 8.7 11.5 1.9 11.5 1.9-4.3-8.5-8.8-10.7-10.9-1.6-10.9-1.6l-.5.5z" class="st2" /><path d="M181.2 64.8s-5.6-3.5-9.2-3.5c-6 0-8.7 3.5-8.7 3.5l9.7 4.4 8.2-4.4z" class="st3" /><path d="M163.3 64.8s3.3-3.1 8.4-2.7c4.2.3 9.5 2.7 9.5 2.7s-6.6 3.1-11.2 2.3-5.9-2-5.9-2l-.2.8s3.8 4.5 11.8 3.4 11-3.9 11-3.9-7.9-5.4-12.9-5.1-10.3 3.9-10.3 3.9l-.2.6z" class="st2" /><path d="M177.6 55.6s-6.6-.2-9.7 1.7c-5.1 3-5.7 7.4-5.7 7.4l9.4-1 6-8.1z" class="st1" /><path d="M162.2 64.7s1.2-4.4 5.9-6.6c3.8-1.8 9.5-2.5 9.5-2.5s-4.1 6-8.5 7.7c-4.3 1.7-6.1 1.3-6.1 1.3l.2.8s5.6 1.9 11.9-3.1c6.3-5.1 7.5-9 7.5-9s-9.5-.6-13.7 2.2a24.1 24.1 0 0 0-6.9 8.6l.2.6z" class="st2" /><path d="M170.3 46.9s-5.8 4.2-7.6 7.4c-3 5.2-1.3 9.3-1.3 9.3l7.1-4.8 2.6-10.9-.8-1z" class="st3" /><path d="M161.4 63.6s-1.1-4.4 1.8-8.7c2.4-3.5 7-6.9 7-6.9s-.6 7.2-3.6 10.8-4.7 4.1-4.7 4.1l.6.6s5.8-1.1 8.8-8.6 2-11.5 2-11.5-8.6 4.2-10.8 8.7-1.7 10.9-1.7 10.9l.6.6z" class="st2" /><path d="M160.8 45.7s-3.6 5.5-3.6 9.2c-.1 6 3.4 8.7 3.4 8.7l3.8-6.7-2.9-12.5-.7 1.3z" class="st1" /><path d="M160.6 63.7s-3.1-3.3-2.6-8.5c.4-4.2 2.8-9.4 2.8-9.4s3 6.6 2.1 11.2c-.8 4.6-2.1 5.9-2.1 5.9l.8.2s4.5-3.8 3.5-11.8-3.8-11.1-3.8-11.1S155.8 48 156 53s3.8 10.4 3.8 10.4l.8.3z" class="st2" /><path d="M151.4 49.4s-.1 6.6 1.8 9.7c3.1 5.1 7.5 5.6 7.5 5.6l-1-8.8-8.3-6.5z" class="st3" /><path d="M160.7 64.7s-4.4-1.2-6.7-5.8c-1.9-3.7-2.6-9.5-2.6-9.5s6 4.1 7.7 8.4 1.3 6.1 1.3 6.1l.8-.2s1.9-5.6-3.2-11.9-9.1-7.4-9.1-7.4-.5 9.5 2.3 13.7c4.3 6.3 8.7 6.8 8.7 6.8l.8-.2z" class="st2" /><ellipse cx="161.9" cy="66.1" class="st4" rx="4.1" ry="4.1" transform="rotate(-15.3 162 66.1)" /><ellipse cx="161.9" cy="66.1" class="st5" rx="2.5" ry="2.5" transform="rotate(-15.3 162 66.1)" /><path d="M108.8 43.3s3 5.8 6.2 7.7c5.1 3 9.2 1.4 9.2 1.4s-1.8-5-6.6-7.7-8.8-1.4-8.8-1.4z" class="st1" /><path d="M124.2 52.5s-4.4 1-8.6-2c-3.4-2.4-6.7-7.2-6.7-7.2s7.2.7 10.8 3.8c3.5 3 4.1 4.8 4.1 4.8l.6-.6s-1-5.8-8.4-8.9-11.5-2.3-11.5-2.3 4 8.7 8.4 11 10.8 1.9 10.8 1.9l.5-.5z" class="st2" /><path d="M106.3 53.9s6 3.4 9.7 3.3c6 0 8.6-3.5 8.6-3.5s-4-2.3-9.3-2.5-9 2.7-9 2.7z" class="st3" /><path d="M124.6 53.7s-3.3 3.1-8.4 2.8c-4.2-.3-9.5-2.6-9.5-2.6s6.6-3.1 11.2-2.3 5.9 2 5.9 2l.2-.8s-3.9-4.5-11.8-3.3c-8 1.2-11 4-11 4s7.9 5.3 12.9 5 10.3-3.9 10.3-3.9l.2-.9z" class="st2" /><path d="M126.2 54.1s-3.3 3.5-2.7 8.7 3.9 9.2 3.9 9.2l-1.2-17.9z" class="st1" /><path d="M127.4 72s3.1-5.8 2.8-9.5c-.4-6-4.1-8.4-4.1-8.4l1.3 17.9z" class="st3" /><path d="M126.2 54.1s3.3 3.1 3.3 8.2c0 4.2-2 9.6-2 9.6s-3.5-6.4-3-11 1.6-6.1 1.6-6.1l-.8-.2s-4.2 4.1-2.5 12 4.7 10.7 4.7 10.7 4.8-8.2 4.2-13.2-4.6-10-4.6-10h-.9z" class="st2" /><path d="M127.3 54.2s-1.3 4.6 1.6 8.9 7.7 6.4 7.7 6.4l-9.3-15.3z" class="st1" /><path d="M136.6 69.5s.1-6.6-1.8-9.7c-3.1-5.1-7.5-5.6-7.5-5.6l9.3 15.3z" class="st3" /><path d="M127.3 54.2s4.4 1.2 6.7 5.8c1.9 3.7 2.6 9.5 2.6 9.5s-6-4.1-7.7-8.4-1.3-6.1-1.3-6.1l-.8.2s-1.9 5.6 3.2 11.9c5.1 6.3 9.1 7.4 9.1 7.4s.5-9.5-2.3-13.7-8.7-6.8-8.7-6.8l-.8.2z" class="st2" /><path d="M143.1 61.5s-3.2-5.7-6.4-7.5c-5.2-2.9-9.3-1.1-9.3-1.1l4 5.9 11.7 2.7z" class="st1" /><path d="M127.4 52.9s4.4-1.2 8.7 1.7c3.5 2.3 7 6.9 7 6.9s-7.3-.5-10.9-3.4-4.2-4.6-4.2-4.6l-.6.6s1.2 5.8 8.7 8.7c7.6 2.9 11.5 1.9 11.5 1.9s-4.3-8.5-8.8-10.7-10.9-1.6-10.9-1.6l-.5.5z" class="st2" /><path d="M145.1 51.3s-5.6-3.5-9.2-3.5c-6 0-8.7 3.5-8.7 3.5s3.1 3.4 8.6 3.7 9.3-3.7 9.3-3.7z" class="st3" /><path d="M127.2 51.2s3.3-3.1 8.4-2.7c4.2.3 9.5 2.7 9.5 2.7s-6.6 3.1-11.2 2.3-5.9-2-5.9-2l-.2.8s3.8 4.5 11.8 3.4 11-3.9 11-3.9-7.9-5.4-12.9-5.1c-5 .3-10.3 3.9-10.3 3.9l-.2.6z" class="st2" /><path d="M141.5 42s-6.6-.2-9.7 1.7c-5.1 3-5.7 7.4-5.7 7.4s3.4 1.8 9.1-.6c5.8-2.4 6.3-8.5 6.3-8.5z" class="st1" /><path d="M126.1 51.2s1.2-4.4 5.9-6.6c3.8-1.8 9.5-2.5 9.5-2.5s-4.1 6-8.5 7.7c-4.3 1.7-6.1 1.3-6.1 1.3l.2.8s5.6 1.9 11.9-3.1c6.3-5.1 7.5-9 7.5-9s-9.5-.6-13.7 2.2-6.9 8.6-6.9 8.6l.2.6z" class="st2" /><path d="M134.3 34.1s-6 3.5-7.8 6.7c-3 5.2-1.3 9.3-1.3 9.3s4.5-1.2 7-5.3 2.1-10.7 2.1-10.7z" class="st3" /><path d="M125.3 50s-1.1-4.4 1.8-8.7c2.4-3.5 7-6.9 7-6.9s-.6 7.2-3.6 10.8-4.7 4.1-4.7 4.1l.6.6s5.8-1.1 8.8-8.6 2-11.5 2-11.5-8.6 4.2-10.8 8.7-1.7 10.9-1.7 10.9l.6.6z" class="st2" /><path d="M124.7 32.2s-3.6 5.5-3.6 9.2c-.1 6 3.4 8.7 3.4 8.7s2.8-2 3.2-8.1c.5-6.1-3-9.8-3-9.8z" class="st1" /><path d="M124.5 50.1s-3.1-3.3-2.6-8.5c.4-4.2 2.8-9.4 2.8-9.4s3 6.6 2.1 11.2-2.1 5.9-2.1 5.9l.8.2s4.5-3.8 3.5-11.8-3.8-11.1-3.8-11.1-5.5 7.8-5.3 12.8 3.8 10.4 3.8 10.4l.8.3z" class="st2" /><path d="M115.3 35.9s-.1 6.6 1.8 9.7c3.1 5.1 7.5 5.6 7.5 5.6s1.8-2.7-1.5-8.8-7.8-6.5-7.8-6.5z" class="st3" /><path d="M124.6 51.2s-4.4-1.2-6.7-5.8c-1.9-3.7-2.6-9.5-2.6-9.5s6 4.1 7.7 8.4 1.3 6.1 1.3 6.1l.8-.2s1.9-5.6-3.2-11.9-9.1-7.4-9.1-7.4-.5 9.5 2.3 13.7c4.3 6.3 8.7 6.8 8.7 6.8l.8-.2z" class="st2" /><ellipse cx="125.8" cy="52.5" class="st4" rx="4.1" ry="4.1" transform="rotate(-15.3 125.8 52.5)" /><ellipse cx="125.8" cy="52.5" class="st5" rx="2.5" ry="2.5" transform="rotate(-15.3 125.8 52.5)" /><path d="M124.8 135.9l-18.6 9.2h35.9l-17.3-9.2z" class="st1" /><path d="M289.2 66.1c0 3.7-2.6 8.2-1.5 11.4 1.6 4.7 1.1 8.1-1.7 12.4-2.1 3.2-5 5.8-8.3 7.7-1.5.9-3.7 1.3-5 2.3-1.4 1.1-1.9 2.8-3.1 4.2-5.9 6.8-16.9 6.8-24.7 3.7a43.1 43.1 0 0 1-10.9-6.5 19 19 0 0 1-4-4.5c-1-2-2.7-3.6-4.7-4.6a25.7 25.7 0 0 1-13.4-20.3c-.4-4.3.6-9 2.8-12.7.9-1.5 2.5-2.6 2.9-4.2.5-1.8-.1-4.3.3-6.2A25.4 25.4 0 0 1 232 31.2c3.5-1.4 8.4-2.5 11.7-.3 2 1.3 1.2 1.3 3.4.7 2.5-.6 4.7-1.6 7.3-1.9 9.4-1 19.7 3.3 24 12.1 1.1 2.3 1.4 3.1 3.4 4.9 1.8 1.6 3.3 3.6 4.3 5.8 1 2.1 1.8 4.5 2.4 6.8.6 2.2.2 4.8.7 6.8z" class="st6" /><path d="M243.3 52.4c-6.1 13.2 9.4 23.4 20.9 22.2.3 2.4-11.2 6.8-20.5 1.4-8.8-5.1-15.4-19.6-.4-23.6z" class="st7" /><path d="M265.8 35.3c5.6 2.3 10.2 7.8 9.9 14.1-.4 7.2-7 13.9-13.8 15.3-1-1.6 3.1-3.2 5.1-5.1 2.3-2.1 11-11.6-2.4-19.1-5.1-2.9-14.6-5.7-25.4 4.6-.4.4-2.4 3.4-2.4 3.2-.9-8.6 17.4-17.9 29-13z" class="st8" /><path d="M236.6 56.2c.6.7-7 10.8 7.8 19.9 9.2 5.6 17.3.2 19.4-1 1.8-1 4-1.5 5.8-2.8-2.1 10.7-16.6 11.5-24.6 8-8.7-3.9-20.3-16.1-8.4-24.1z" class="st9" /><path d="M278.2 61.8c.6-3.5 1.6-6.4 2.2-10a25.4 25.4 0 0 1 3 18.1c-1.4 8.5-11.4 11.6-12 9.6-.4-1.1 5-6 5.5-7.4 1.7-3.9 1.5-9 1.3-10.3z" class="st8" /><path d="M271.4 48.5c-5.3-5.2-10.4-7-16.2-5.6-2.8.7-5.1 2.5-7.9 3-1.7.3-3.5.4-5.2.8-1.6.4-3.8 1.8-5.4 1.8-1.1-1.9 9.2-11.2 17.9-10.9 13.7.5 18.4 10.3 16.8 10.9zm-32-12.4c-3.7 3.3-7.5 8-8.7 12.9-.3 1.3.2 3-.1 4.1-.4 1.1-1.4 1.9-2 2.8a18.4 18.4 0 0 0-3.1 7.5c-4.7-5-1.8-10.8 3.3-21 1.3-2.7 9.6-7.6 10.6-6.3zM278.2 84c.4 3.6-15.2 12-24.8 3.9 5 0 9.5-1.6 13.8-3.8 2.2-1.1 1.2-.6 3.7.2 2.2.7 5.1.4 7.3-.3z" class="st10" /><path d="M256.9 99.5c1.5.2 4.1 2.1 8.3 1.8-8.7 7.9-22.5 1.5-29.6-5.3 5.6-.1 4.8 1.5 8 2.7 10.3 3.8 12.8.6 13.3.8z" class="st9" /><path d="M239.4 36.1c-4.5.7-8.4 3.9-10.9 7.5a66.8 66.8 0 0 0-5.3 15.2c-2.4-8.5.8-15.3 5.7-19.8 2.3-2.1 5.2-3.9 8.2-4.6 2.4-.7 6.6.3 2.3 1.7z" class="st11" /><path d="M263.3 62.1c-.3 4.3-6 3.4-8.8 2.7-2.5-.6-5-2.4-5-5.1-.3-9.9 11.2-10.9 15.1-7.5 2.9 2.5-4.2 6.3-6.7 4.9 2.6-.3 4.3-2.6 1.2-4.1-2.5-1.2-6.1.7-7.1 3.1-2.7 6.9 7.3 8 11.3 6z" class="st12" /><path d="M278.2 61.8c1 5.1-.1 13.9-6.1 15.9 1.5-5.4 2-11.8 6.1-15.9z" class="st7" /><path d="M324.7 117.9c-1.5 2.8-5.1 5-5.6 7.8-.7 4.1-2.4 6.4-6.1 8.5a19.3 19.3 0 0 1-9.1 2.4c-1.4.1-3.2-.5-4.6-.3-1.5.2-2.5 1.4-3.9 1.9-7.1 2.7-15.1-1.6-19.6-6.9a32.5 32.5 0 0 1-5.5-9.1c-.6-1.6-1.1-3.2-1.2-4.9-.2-2.5-.3-3.1-1.7-5.2a22 22 0 0 1-2-20.2c1.4-3.3 3.9-6.4 7-8.3 1.3-.8 2.8-.9 3.8-2 1.1-1.1 1.6-3.2 2.7-4.5a21 21 0 0 1 17.3-7.4c3.1.3 7.1 1.4 8.8 4.4 1 1.7.4 1.4 2.2 1.9 2.1.5 4.1.7 6.1 1.5a20 20 0 0 1 13 18.3c-.1 2.2-.2 2.9.6 4.9.7 1.9 1 3.9.9 5.9s-.4 4-.9 5.9c-.4 2-1.8 3.7-2.2 5.4z" class="st6" /><path d="M296.2 89.9c-9.7 7.3-2.2 20.9 6.7 24.5-.8 1.9-10.9.6-15.7-7-4.4-7.1-3.6-20.4 9-17.5z" class="st7" /><path d="M319.5 86c3.2 3.9 4.5 9.7 1.8 14.3-3.1 5.2-10.6 7.5-16.2 5.9-.1-1.6 3.5-1.2 5.8-1.8 2.5-.7 12.6-4.3 5.7-15-2.7-4.1-8.5-9.9-20.6-6.5-.4.1-3.1 1.6-3.1 1.4 2.8-6.7 19.9-6.3 26.6 1.7z" class="st8" /><path d="M289.8 90.1c.1.7-9.4 5.2-2 17.7 4.6 7.8 12.7 6.9 14.7 6.9 1.8-.1 3.6.4 5.4.2-5.7 7-16.8 2-21.3-3.7-5-6.3-8.7-19.9 3.2-21.1z" class="st9" /><path d="M282.4 113.4c.6.9 2.2 2 2.4 3 .1.4-.9 2.5-1 3.1-6.6-3.7-12.8-6.7-15.1-14.6-2.9-10.4 4.2-18 6-17.7.3 0 .4 2.8.5 3.1.7 1.5.8.9-1.1 3.6-1.6 2.2-2.6 5-2.1 7.8 2.4 13 8.9 11.2 10.4 11.7z" class="st8" /><path d="M282.4 113.4c-4.9 1.2-8.7-3.7-9.9-7.9-2-7.4-1-9.3 3.2-14.1 1.7 2.6 1.6 1.9 1.2 4.8-.3 2.1-.1 4.2.3 6.2.8 3.9 2.6 7.9 5.2 11z" class="st10" /><path d="M287.8 130c1 .8 2.2 3.2 5.4 4.6-9.5 2.4-17.1-7.7-19.8-15.5 4.1 2.1 2.9 3 4.8 5.1 6.2 6.8 9.4 5.4 9.6 5.8z" class="st9" /><path d="M299.7 76.4a15 15 0 0 0-11 1.2c-1.8.9-8.1 6.8-9.9 9.1 1.5-7.3 6.6-11 12-12.4 2.5-.6 5.4-.8 7.9-.2 2 .5 4.7 2.9 1 2.3z" class="st11" /><path d="M307.2 104.9c-1.9 3-5.7.2-7.6-1.4-1.6-1.4-2.7-3.7-1.7-5.7 3.6-7.4 12.5-3.7 14.1.4 1.2 3-5.5 3-6.8 1 2 .8 4.2-.3 2.5-2.6-1.4-1.9-4.8-1.9-6.4-.5-4.8 4 2.1 8.7 5.9 8.8z" class="st12" /><path d="M287.8 130c-5.3 1.6-11.8-7.3-11.6-9.2 1.5.7 3 1.3 4.6 1.6 1.1.2 2.4.1 3.3.9.7.7 1 2.2 1.5 3.1s2.3 2.5 2.2 3.6z" class="st10" /><path d="M294.9 135.7c-.1 2.3-1.8 4.9-1.2 6.9l.4 1.8v1.8l-43.5-.3s-1-1.5-1.4-2.4c-.9-1.8-1.4-3.8-1.6-5.9-.1-2.7 25.3-24.7 26.9-24.8 5.8-.4 11.9 2.4 14.4 7.9.6 1.4.8 1.9 2 3.1 1.1 1.1 1.9 2.2 2.5 3.6.6 1.3 1 2.8 1.3 4.2.2 1.2-.1 2.8.2 4.1z" class="st6" /><path d="M281.2 116.3c3.4 1.6 6.1 5 5.7 8.8-.4 4.4-4.6 8.3-8.8 9.1-.6-1 1.9-1.9 3.2-3 1.4-1.3 6.9-6.9-1.1-11.7-3.1-1.9-8.8-3.8-15.6 2.3l-1.6 1.9c-.1-5.3 11.3-10.6 18.2-7.4z" class="st8" /><path d="M263 128.5c.3.4-4.5 6.4 4.3 12.3 5.5 3.6 10.5.5 11.9-.2 1.1-.6 2.5-.8 3.6-1.6-1.5 6.5-10.4 6.7-15.2 4.4-5.2-2.6-12.1-10.3-4.6-14.9z" class="st9" /><path d="M284.4 124.6c-3.1-3.3-6.2-4.5-9.8-3.8-1.7.4-3.1 1.4-4.9 1.7-1.1.1-2.1.1-3.2.4-1 .2-2.3 1-3.3 1-.6-1.2 5.8-6.7 11.2-6.3 8.3.5 11 6.6 10 7z" class="st10" /><path d="M279.2 132.7c-.3 2.6-3.7 1.9-5.4 1.5-1.5-.4-3-1.6-3-3.2 0-6 7.1-6.4 9.4-4.3 1.7 1.6-2.7 3.7-4.2 2.9 1.6-.1 2.7-1.5.8-2.5-1.5-.8-3.7.3-4.4 1.7-1.8 4.1 4.2 5 6.8 3.9z" class="st12" /><path d="M343.8 138.7c-.1 1.8-.9 3.7-1.4 5.5l-.2 1.4-53.9.5-.6-1.9c-.3-1.1-.4-2.3-.5-3.4-.2-3.2.7-6.5 2.4-9.2.7-1.1 1.9-1.8 2.2-3 .4-1.3.1-3.1.4-4.5a18.6 18.6 0 0 1 10.8-12.4c2.6-.9 6.2-1.6 8.6.1 1.4 1 .8 1 2.4.6 1.9-.4 3.5-1 5.4-1.2 6.9-.5 14.3 2.9 17.1 9.5.8 1.7 1 2.3 2.3 3.7 1.3 1.2 2.3 2.7 3 4.3.7 1.6 1.2 3.3 1.5 5 .5 1.6.2 3.5.5 5z" class="st6" /><path d="M310.7 127.4c-4.8 9.4 6.2 17.3 14.6 16.8.1 1.8-8.4 4.6-15 .4-6.2-4-10.7-14.7.4-17.2z" class="st7" /><path d="M327.6 115.5c4 1.9 7.2 5.9 6.8 10.6-.5 5.3-5.5 9.9-10.5 10.8-.7-1.2 2.3-2.2 3.9-3.6 1.7-1.5 8.3-8.2-1.2-14-3.7-2.2-10.5-4.6-18.7 2.6l-1.9 2.3c-.3-6.3 13.3-12.5 21.6-8.7z" class="st8" /><path d="M305.7 130c.4.5-5.4 7.7 5.1 14.7.3.2-2.1 1.7-3.3.8-5-4.1-9.1-11.1-1.8-15.5z" class="st9" /><path d="M295.6 145.6c-1.9-3.1-1.7-5.1-.5-9.2 2.3 1.4 2 .9 2.8 3.4.5 1.8 1.4 3.4 2.6 4.8.3.4-4.3 1.9-4.9 1z" class="st10" /><path d="M335.9 135.2c.5-2.5 1.4-4.6 1.9-7.2 2.3 4 2.6 8.8 1.7 13.3a8.6 8.6 0 0 1-1.6 3.5c-2.6 3.4-6.4 1.5-5.3.3l2.1-2.3c1.3-2.9 1.3-6.6 1.2-7.6z" class="st8" /><path d="M331.3 125.4c-3.7-4-7.4-5.4-11.7-4.5-2.1.4-3.8 1.7-5.8 2l-3.8.4c-1.2.3-2.8 1.2-4 1.2-.7-1.4 7-7.9 13.4-7.5 9.9.7 13.1 7.9 11.9 8.4zm-23-10a19.4 19.4 0 0 0-6.7 9.2c-.3.9.1 2.2-.2 3-.3.8-1 1.3-1.6 2a13.4 13.4 0 0 0-2.5 5.4c-3.3-3.8-1-7.9 3-15.2 1.1-2 7.3-5.4 8-4.4z" class="st10" /><path d="M308.3 115.4a13 13 0 0 0-8.2 5.1 46.7 46.7 0 0 0-4.3 10.9c-1.5-6.3 1-11.2 4.8-14.3 1.7-1.4 3.9-2.7 6.1-3.2 1.8-.2 4.8.6 1.6 1.5z" class="st11" /><path d="M325 135c-.4 3.1-4.4 2.3-6.5 1.7-1.8-.5-3.5-1.9-3.5-3.8 0-7.2 8.5-7.7 11.2-5 2.1 1.9-3.2 4.5-5 3.4 1.9-.1 3.2-1.8 1-3-1.8-.9-4.5.3-5.2 2-2.2 5 5 6.1 8 4.7z" class="st12" /><path d="M133.6 126.6c2.1-4.2 2.8-8.4 3.1-13 .3-3.9.6-7.7 3.4-10.6 3.5-3.6 7.6-5.8 9.9-10.4 2.1-4.4 2.3-9.2.8-13.8-5-15.6-32-38.1-46.1-19.8-2.6 3.4-3.6 8-7.3 10.5-3.2 2.2-7.2 2.3-10.8 3.3-6.8 2-11.7 6.8-15.4 12.7-11.2 17.8-2.6 39.4 13.5 50.8 9.1 6.4 21 9.5 31.8 5.4 6.6-2.5 14-8.4 17.1-15.1z" class="st13" /><path d="M86.4 136.6l-8.7-7.9 79.8-95.1 8.8 7-79.9 96z" class="st14" /><path fill="#b26e3f" d="M133.5 126.8c2.1-4.1 2.8-8.3 3.1-12.8.3-3.9.6-7.6 3.4-10.5 3.4-3.5 7.5-5.7 9.8-10.3 1.9-3.9 2.3-8.3 1.3-12.5-3.9-15.5-28.4-36.5-43.5-22.3-3.4 3.2-4.4 8.1-7.7 11.2-2.8 2.7-6.6 3.1-10.2 4A28 28 0 0 0 74 84.9c-12.5 17.2-5.9 39.1 10.3 51.3 16.1 12 39.3 9.2 49.2-9.4z" /><path d="M166 41.8c4.5 3 11-8.2 13.2-10.7 2.1-2.5 4.2-4.9 6.2-7.5l1.1-1.3c.6-1 1-2 .8-3.2-.1-.7-1-1.4-1-2-.1-.6.5-1.5.5-2.2a6.3 6.3 0 0 0-4-6.1c-1-.4-2.1-.5-3.2-.3-.4.1-1.6.8-2 .8-.6 0-1.3-.7-2-.7-2.4-.1-4 2.6-5.4 4.3-4.2 5-8.8 9.8-12.6 15.1-4.1 5.5 4.6 10.4 8.4 13.8zm14-22.4c2.1-2.4 3.3 1.2 2.3 2.9-1 1.8-2.8 3.4-4.1 4.9l-5.2 6.2c-.8.9-1.8 2.8-2.9 3.3-2.6 1.2-2.9-1.4-2-3.1.9-1.7 2.7-3.3 3.9-4.8 2.7-3 5.4-6.2 8-9.4zm-6.4-5.7c2-2.3 3.3 1.1 2.4 2.8-.9 1.7-2.8 3.3-4 4.8l-5.2 6.2c-.8.9-1.7 2.7-2.8 3.3-2.5 1.5-3.5-.8-2.4-2.8.8-1.6 2.6-3.1 3.7-4.5l8.3-9.8zm-67.9 46.8l-2.9 4.8c11.7-4.6 23-7.2 35.3-3.1-9.7-8.1-23-12.9-32.4-1.7z" class="st13" /><path d="M105.7 60.5l-2.9 4.8c11.7-4.6 23-7.2 35.3-3.1-9.7-8.1-23-12.9-32.4-1.7z" class="st16" /><path d="M67.9 112c4.5 18.7 24.1 35.5 44 31.2 7.9-2 14.8-6.7 19.5-13.4 4.3-5.9 4.4-12.2 5.3-19.1-8 15.8-33.2 27.6-47.8 12.9-11.2-11.2-6.3-31.4 3.1-42-5.4 10.1-9.1 43.9 27.8 38.2 8.7-1.3 15.2-9.3 17.7-17.8 2.3-8.1-1.1-17.5-10.1-19.6-9.2-2.1-11.2 12.5-3.2 15.5-1.1-.4-5.6 5.4-7.5 6.2-3 1.3-7.1 2.2-10.2.9-8-3.5-2.3-15.5 1.5-20a18 18 0 0 1 22.2-3.5c8.1 4.5 10.9 14.2 8.8 22.9 2.4-2.8 5.7-4.5 8.1-7.3 2.5-3 4.1-6.9 4.3-10.8.4-7-6.2-13.4-11.6-17a33 33 0 0 0-41.3 3.6v-2.1c-3 2.1-6.5 2.4-9.9 3.3-4.9 1.3-9 3.8-12.3 7.7-7 8.4-10 19.4-8.4 30.2z" class="st16" /><path d="M105.2 142.1c-17.9 0-34.3-16.4-36.1-33.8a34.7 34.7 0 0 1 17.1-33c4.3-2 10-1.9 13.7-5.1 3-2.6 4.1-7 6.7-10 2.7-3.3 6.5-5.7 10.7-6.4 8.6-1.3 16.8 4.7 22.7 10.3 5.8 5.6 11.2 13.2 10.5 21.6-.3 3.6-1.8 7.2-4.1 10-2.5 3.2-6.7 5.2-8.9 8.8-2.8 4.8-1.5 11.3-3.2 16.5a32 32 0 0 1-29.1 21.1zm14.3-87.3c-4.1 0-7.8 1.8-10.8 4.6-3.5 3.3-4.6 8.6-8.2 11.6s-8.6 2.9-12.8 4.6c-2.6 1.1-5 2.6-7.1 4.6a33.9 33.9 0 0 0-4.5 44c10.5 15.1 31.2 22.9 46.7 10.4 4.1-3.3 8.1-7.7 10-12.6 1.7-4.5 1.4-9 2.3-13.6 1.1-5.5 4.9-7.5 8.6-11.1 7.9-7.8 6.4-18.5.2-26.8-4.9-6.7-15.3-16.8-24.4-15.7z" class="st14" /><path fill="#dd9a6c" d="M114 79.5c17.1 0 17.1 27.4 0 27.4s-17.1-27.4 0-27.4z" /><path fill="#47230a" d="M114 81.6c14.5 0 14.5 23.2 0 23.2s-14.5-23.2 0-23.2z" /><path fill="#33827c" d="M245.2 112l-4.2 1.4 2-3.2a114.2 114.2 0 0 0 14.7-52.5l-.6.1c-20.1 9.5-26.1 12.3-39.9 24l-2.5 2s-.4-5.7-.9-9c-2.6-18.8-12.1-37.4-22.5-54.9-.1.2-.4.2-.6.1l-.1-.1c-10.3 17.5-19.9 36.1-22.4 54.9-.4 3.2-.7 5.9-.7 9.2v.3l-2.9-2.6c-13.8-11.7-19.4-14.2-39.4-23.6l-.9-.3a113 113 0 0 0 14.6 52.3l2.4 3.8-4.2-1a113.5 113.5 0 0 0-33.9-2.1l2.6 3.2c7.6 9.3 15.5 19 24.4 23.2a37 37 0 0 0 14.6 3.6h92.9c5-.2 10-1.4 14.5-3.6 8.9-4.2 16.8-13.9 24.4-23.2l2.6-3.6c-9.3-.5-20.4-1.6-34 1.6zm-243 40.8h16.6l21.5 31.4 20.8-31.4h17.6v72.8H62.6V178L40 211.6l-21.7-32.1v46.1H2.2v-72.8zm84.5.1h43.6v13.5h-26.8v15.4h25.7v13.6h-25.8v16.8h26.9v13.4H86.7v-72.7zm70.2-.1l14.9 22.4 14.1-22.4H203l-22.5 35.4 25.7 37.4h-18.5l-16-23.6-15.2 23.6h-17.2l23.6-36.5-24.6-36.2 18.6-.1zm56.1 0h16.3v72.8H213v-72.8zm129.9-1.7a42 42 0 0 1 28.4 11.1c7.3 7 11.5 16.7 11.6 26.8.1 10.2-4.1 20-11.6 27a40.2 40.2 0 0 1-28.5 11 39.4 39.4 0 0 1-36.2-23.4 36.6 36.6 0 0 1-3.1-15c0-4.9 1.1-9.8 3.2-14.2a43 43 0 0 1 21.2-20.2c4.8-2.1 9.9-3.1 15-3.1zm.5 13.5a24 24 0 0 0-22.4 15 25 25 0 0 0 0 19 25 25 0 0 0 32.1 12.7 24.4 24.4 0 0 0-9.7-46.7zm-45.1 7.1a88 88 0 0 0-11.3-5c-1.7-.5-3.4-.8-5.1-1.1-1.8-.2-3.6-.4-5.4-.4-3.4 0-6.8.6-10 1.8a23.2 23.2 0 0 0-15.1 22.4 23.7 23.7 0 0 0 23.4 24h1.1c4 0 8.1-.6 11.9-1.9 4.3-1.5 8.4-3.6 12.2-6.1v15.7c-2.7 1.2-5.2 2.1-7.3 2.9l-6 1.8c-1.8.4-3.7.8-5.6.9-1.9.2-3.9.2-6.1.2a41.8 41.8 0 0 1-28.3-10.7 36.5 36.5 0 0 1-8.3-11.9 39 39 0 0 1 0-30 38.8 38.8 0 0 1 21-20.2c4.9-2 10.2-3 15.6-3 3.6 0 7.2.4 10.7 1.2 4.3 1 8.5 2.4 12.6 4.1v15.3z" /><path d="M2 229.5h378.9v3.6H2v-3.6z" class="st20" /><path d="M281.2 107.5c-11.1-1.1-22.2-.7-33.2 1.2 10.4-18.6 12.7-41 13.1-53.1l.1-2.9-5.5 2.6c-18.6 8.8-25.7 12.1-38.1 22.4-1.5-16.6-9.1-31-17.2-46.2-2.7-5.1-5.4-10.3-8-15.7l-1.4-2.9-1.4 2.9c-2.6 5.4-5.3 10.6-8 15.7-8 15.2-15.6 29.7-17.2 46.2-12.3-10.4-19.4-13.7-38-22.5l-5.5-2.6.1 2.9c.4 12.1 2.7 34.5 13.1 53.1-11-1.9-22.1-2.3-33.2-1.2l-4.7.3 2.3 2.8 4.9 5.9c7.9 9.6 16 19.6 25.6 24.2 5 2.4 10.4 3.8 15.9 4h2.5c1.6 0 3.1-.1 4.6-.3a20 20 0 0 1-2.4-.4 8 8 0 0 1-2.5-1.1c-.9-.5-1.6-1.2-2.3-1.9a36 36 0 0 1-14.4-3.6c-8.9-4.2-16.8-13.9-24.4-23.2l-2.6-3.2c8.8-.6 20.3-1.1 33.9 2.1l4.2 1-2.4-3.8c-9-15.9-14-33.7-14.5-52l.4.2c20.1 9.5 26.2 12.3 39.9 24l2.7 2.3.1-3.6c.7-17.2 8.6-32.3 17-48.2l6.3-12.3 6.3 12.3c8.4 15.9 16.3 30.9 17 48.2l.1 3.6 2.7-2.3c13.8-11.7 19.9-14.6 39.9-24l.4-.2c-.7 13.1-3.6 34.8-14.5 51.9l-2.4 3.8 4.2-1c13.6-3.1 25.1-2.7 33.9-2.1L276 114c-7.6 9.3-15.5 19-24.4 23.2a37 37 0 0 1-14.6 3.6h-1.2c-.9.7-2 1.3-3.1 1.6a15 15 0 0 0-3.4 1.6c1.8.3 3.6.4 5.4.4l2.4-.1h.1c5.5-.2 11-1.6 15.9-4 9.6-4.6 17.7-14.5 25.6-24.1l4.9-5.9 2.3-2.8h-4.7z" class="st21" /><path d="M123.8 120.5a63.6 63.6 0 0 0 30 22.1c1.9.5 7.2.3 12 .1l2-.1c-4.6-3.5-8.3-6.6-11.4-9.1-10.9-9-15.3-12.7-32.6-13zm14.6-41.2c1.6 11.7 5 23 10.3 33.6 3.1 5.5 11.7 19.4 24.8 30.1 1.7 1.4 5.3-16.7 1.2-28.2a75 75 0 0 0-36.3-35.5zM191 50.6c-4.7 12.1-14.9 32.8-12 58.9-.4 6.3 23.3 17 23.3 5.9 4.6-30.3-5.5-49.8-11.3-64.8zm42.3 62.3c4.5-7.9 7.9-19.1 10.3-33.6a75.6 75.6 0 0 0-36.4 35.5c-4.1 11.4 8.9 30.5 26.1-1.9zm-7.6 20.6c-3.1 2.6.7 9.6 2.6 9.1a63.6 63.6 0 0 0 30-22.1c-17.3.3-21.7 4-32.6 13z" class="st20" /><path d="M261.3 116.9c-17.6-.1-23.9 2.8-32.5 9.5a102 102 0 0 0 7.6-11.7c5-8.9 8.8-21.7 11.3-38.2l.5-3.3-2.9 1.3a80.4 80.4 0 0 0-38.7 34.1c.2-2.8.4-5.5.4-8.1.2-18.9-4.3-30.8-14.4-55.9l-1.4-3.5-1.4 3.5c-10.1 25.1-14.6 36.9-14.4 55.9 0 2.7.2 5.4.4 8.1A81.5 81.5 0 0 0 137 74.5l-2.9-1.3.5 3.3c2.5 16.5 6.3 29.3 11.3 38.2 2.3 4 4.9 7.9 7.6 11.6-8.6-6.7-14.9-9.6-32.5-9.5h-3l1.3 2.6c6.2 12.7 21.5 21.6 29.6 25.1 0 0 79.8 1.7 80.2 1.6 5.3-1.4 26.2-11.2 33.7-26.6l1.3-2.6h-2.8zm-107.5 25.7a63.6 63.6 0 0 1-30-22.1c17.2.3 21.7 3.9 32.6 13 3.1 2.6-.7 9.6-2.6 9.1zm16.2-2.8a115 115 0 0 1-21.2-26.9c-4.4-7.9-7.9-19.1-10.3-33.6a75.6 75.6 0 0 1 36.4 35.5c1.3 3.6-3.6 26-4.9 25zm11.5-14.9c-1.8-8-2.8-16.2-2.9-24.4-.1-17.1 3.7-28.4 12.4-49.9 8.6 21.6 12.5 32.9 12.4 49.9-.1 8.2-1.1 16.4-2.9 24.4-.4 1.6-18.5 1.5-19 0zm25.8-10.1a76 76 0 0 1 36.4-35.5 98.8 98.8 0 0 1-10.3 33.5 115 115 0 0 1-21.2 26.9c-1.4 1.1-6.2-21.4-4.9-24.9zm20.9 27.8c-1.9.5-7.2.3-12 .1l-2-.1c4.6-3.5 8.3-6.5 11.4-9.1 10.9-9.1 15.4-12.8 32.6-13a63.1 63.1 0 0 1-30 22.1z" class="st0" /><path d="M246.8 146.9c-8.9-24.1-30.3-41.1-55.4-41.1s-46.5 17-55.4 41.1h110.8z" class="st21" /><path d="M240.7 144.9c-7.9-20.8-27-35.4-49.4-35.4S150 124.1 142 144.9h98.7z" class="st0" /><g class="st22"><path d="M163 123.9c.2-.9.5-1.6.9-2.2.5-.6 1.1-1.1 1.9-1.4.8-.3 1.9-.5 3.3-.5 1.3 0 2.3.1 3.2.4.8.3 1.5.7 1.9 1.2.5.5.8 1.1 1 1.8s.3 1.4.3 2.2c0 1.4-.2 2.5-.7 3.5-.4.9-1 1.8-1.8 2.6l-3 3.1-.7.8-.5.9h6.8v4h-12.9c0-1.4.2-2.8.6-4.1a10 10 0 0 1 2.3-3.7l3.4-3.6c.5-.5.9-1 1.1-1.5.2-.6.3-1.3.3-1.9 0-.9-.1-1.5-.4-1.8-.2-.3-.6-.5-1-.5l-.5.1-.5.4-.3.8-.1 1.4v.9h-4.8l.2-2.9zm14.4 1.2c.3-1.3.7-2.4 1.2-3.2.5-.8 1.2-1.3 2.1-1.6 1.9-.7 4.1-.7 6 0 .8.3 1.5.9 2.1 1.6.5.8 1 1.9 1.2 3.2.3 1.3.4 3 .4 5.1 0 2.1-.1 3.8-.4 5.1-.3 1.3-.7 2.4-1.2 3.2s-1.2 1.3-2.1 1.6c-.8.3-1.8.4-3 .4s-2.1-.1-3-.4c-.8-.3-1.5-.8-2.1-1.6-.6-1-1-2.1-1.2-3.2-.3-1.3-.4-3-.4-5.1s.1-3.8.4-5.1zm5.1 11.4c.2.5.6.8 1.2.8s.9-.3 1.2-.8c.2-.5.4-1.5.4-2.9v-6.7c0-1.4-.1-2.4-.4-2.9-.2-.5-.6-.8-1.2-.8s-.9.3-1.2.8c-.2.5-.4 1.5-.4 2.9v6.7c0 1.4.1 2.4.4 2.9z" class="st21" /></g><g class="st22"><path d="M195.9 126.3h-3.7V123l2-.2 1.5-.5c.4-.2.7-.6 1-1s.5-.9.6-1.5h3.7v20.4h-5.1v-13.9z" class="st21" /></g><g class="st22"><path d="M209.7 136.9c.2.3.5.4 1 .4.4 0 .7-.2 1-.5s.4-.8.4-1.4v-3.3h-.1c-.2.5-.6.9-1.2 1.2-.6.3-1.3.4-2.1.4-.7 0-1.3-.1-1.9-.3-.6-.2-1.1-.5-1.5-1s-.7-1.1-1-1.9c-.2-.8-.3-1.8-.3-3 0-1.4.1-2.6.4-3.5s.7-1.8 1.3-2.4 1.2-1.1 2.1-1.4c.8-.3 1.7-.4 2.8-.4s2.1.1 3 .4c.8.3 1.6.8 2.1 1.4s1 1.6 1.3 2.7.4 2.5.4 4.2v2.2l-.2 4.2c-.2 1.1-.5 2.1-1 3.1-.5.8-1.2 1.5-2 1.9-.9.4-2.1.6-3.5.6-1 0-2.1-.1-3.1-.4-.7-.2-1.4-.6-1.9-1.1-.5-.5-.8-1-.9-1.7-.2-.6-.3-1.3-.3-2h4.8c0 .7.1 1.2.4 1.6zm-.1-7.8c.2.5.6.7 1.1.7s.8-.2 1.1-.7c.2-.5.4-1.3.4-2.7 0-1.3-.1-2.2-.3-2.7s-.6-.7-1.1-.7-.8.2-1.1.7c-.2.5-.4 1.3-.4 2.7-.1 1.4.1 2.3.3 2.7z" class="st21" /></g><path d="M364 143a227 227 0 0 0-66.9-100.7C265.8 15.9 229.2 2 191.1 2s-74.7 13.9-106 40.2a226.2 226.2 0 0 0-66.9 100.7H2v4h380.6v-4H364v.1zM191.1 5.9c75.5 0 140.3 56.6 167.7 137.1H23.3C50.8 62.5 115.6 5.9 191.1 5.9z" class="st20" /></svg>